<svg width="198" height="56" viewBox="0 0 198 56" fill="none" xmlns="http://www.w3.org/2000/svg">
<path d="M11.0765 2.3151C11.0765 1.03651 12.113 0 13.3916 0H26.6901C27.9687 0 29.0052 1.03651 29.0052 2.3151V11.1314C29.0052 12.41 27.9687 13.4465 26.6901 13.4465H13.3916C12.113 13.4465 11.0765 12.41 11.0765 11.1314V2.3151Z" fill="url(#paint0_linear_7_70)"/>
<path d="M11.0765 44.3005C11.0765 43.0219 12.113 41.9854 13.3916 41.9854H26.6901C27.9687 41.9854 29.0052 43.0219 29.0052 44.3005V53.1169C29.0052 54.3955 27.9687 55.432 26.6901 55.432H13.3916C12.113 55.432 11.0765 54.3955 11.0765 53.1169V44.3005Z" fill="url(#paint1_linear_7_70)"/>
<path d="M0.69873 15.7616C0.69873 14.483 1.73524 13.4465 3.01383 13.4465H8.76141C10.04 13.4465 11.0765 14.483 11.0765 15.7616V24.578C11.0765 25.8566 10.04 26.8931 8.76141 26.8931H3.01383C1.73524 26.8931 0.69873 25.8566 0.69873 24.578V15.7616Z" fill="url(#paint2_linear_7_70)"/>
<path d="M0.69873 30.854C0.69873 29.5754 1.73524 28.5389 3.01383 28.5389H8.76141C10.04 28.5389 11.0765 29.5754 11.0765 30.854V39.6703C11.0765 40.9489 10.04 41.9854 8.76141 41.9854H3.01383C1.73524 41.9854 0.69873 40.9489 0.69873 39.6703V30.854Z" fill="url(#paint3_linear_7_70)"/>
<path d="M8.79056 13.4508C10.5124 13.5263 11.0277 11.6355 11.0796 10.6379L13.0244 12.9688C11.5113 12.6834 10.8906 13.9576 11.0538 15.4907L8.79056 13.4508Z" fill="url(#paint4_linear_7_70)"/>
<path d="M8.79056 41.7641C10.5124 41.6885 11.0277 43.5794 11.0796 44.577L13.0244 42.246C11.5113 42.5315 10.8906 41.2573 11.0538 39.7242L8.79056 41.7641Z" fill="url(#paint5_linear_7_70)"/>
<path d="M3.983 29.5595C5.85638 27.7517 4.83754 26.5685 3.98302 25.395L7.69685 25.395C6.25469 25.9344 6.31664 28.2775 7.69685 29.5595H3.983Z" fill="url(#paint6_linear_7_70)"/>
<path d="M64.2905 24.8996H60.402C60.331 24.3965 60.186 23.9497 59.967 23.559C59.748 23.1625 59.4669 22.8251 59.1236 22.547C58.7803 22.2688 58.3838 22.0557 57.9339 21.9078C57.4901 21.7598 57.0077 21.6858 56.4869 21.6858C55.5458 21.6858 54.7261 21.9196 54.0277 22.3872C53.3293 22.8488 52.7878 23.5235 52.4031 24.4113C52.0183 25.2932 51.826 26.3644 51.826 27.6251C51.826 28.9213 52.0183 30.0103 52.4031 30.8921C52.7937 31.774 53.3382 32.4398 54.0366 32.8897C54.735 33.3395 55.5429 33.5644 56.4602 33.5644C56.9751 33.5644 57.4516 33.4963 57.8896 33.3602C58.3335 33.2241 58.727 33.0258 59.0703 32.7654C59.4136 32.499 59.6977 32.1765 59.9226 31.7977C60.1534 31.4189 60.3132 30.9868 60.402 30.5015L64.2905 30.5193C64.1899 31.3538 63.9383 32.1587 63.5359 32.934C63.1393 33.7035 62.6037 34.393 61.929 35.0026C61.2602 35.6063 60.4612 36.0857 59.532 36.4408C58.6087 36.79 57.564 36.9646 56.3981 36.9646C54.7764 36.9646 53.3263 36.5976 52.0479 35.8637C50.7754 35.1298 49.7693 34.0674 49.0295 32.6766C48.2956 31.2857 47.9286 29.6019 47.9286 27.6251C47.9286 25.6424 48.3015 23.9556 49.0472 22.5647C49.793 21.1739 50.805 20.1144 52.0835 19.3865C53.3619 18.6526 54.8001 18.2856 56.3981 18.2856C57.4516 18.2856 58.4281 18.4336 59.3278 18.7295C60.2333 19.0254 61.0353 19.4575 61.7337 20.0257C62.4321 20.5879 63.0002 21.2774 63.4382 22.0942C63.8821 22.911 64.1662 23.8461 64.2905 24.8996ZM66.976 36.716V23.0796H70.6426V25.4589H70.7846C71.0332 24.6125 71.4505 23.9733 72.0364 23.5413C72.6223 23.1033 73.2971 22.8843 74.0605 22.8843C74.2499 22.8843 74.4541 22.8962 74.6731 22.9198C74.8921 22.9435 75.0845 22.9761 75.2502 23.0175V26.3733C75.0726 26.3201 74.827 26.2727 74.5133 26.2313C74.1996 26.1898 73.9126 26.1691 73.6522 26.1691C73.0958 26.1691 72.5987 26.2905 72.1607 26.5331C71.7286 26.7699 71.3854 27.1013 71.1309 27.5274C70.8823 27.9536 70.758 28.4448 70.758 29.0012V36.716H66.976ZM79.9554 41.8296C79.476 41.8296 79.0262 41.7912 78.606 41.7142C78.1917 41.6432 77.8484 41.5515 77.5762 41.439L78.4284 38.6159C78.8723 38.752 79.2718 38.826 79.627 38.8378C79.988 38.8496 80.2987 38.7668 80.5591 38.5892C80.8255 38.4117 81.0415 38.1098 81.2072 37.6837L81.4292 37.1066L76.5375 23.0796H80.5147L83.3379 33.0938H83.4799L86.3297 23.0796H90.3336L85.0336 38.1897C84.7791 38.9236 84.4328 39.5628 83.9949 40.1073C83.5628 40.6578 83.0153 41.0809 82.3525 41.3769C81.6896 41.6787 80.8906 41.8296 79.9554 41.8296ZM92.269 41.8296V23.0796H95.9977V25.3701H96.1664C96.3321 25.0032 96.5718 24.6303 96.8855 24.2515C97.2051 23.8668 97.6194 23.5472 98.1284 23.2927C98.6433 23.0323 99.2825 22.9021 100.046 22.9021C101.04 22.9021 101.958 23.1625 102.798 23.6833C103.639 24.1982 104.31 24.9765 104.813 26.0182C105.316 27.054 105.568 28.3531 105.568 29.9156C105.568 31.4366 105.322 32.721 104.831 33.7686C104.346 34.8102 103.683 35.6004 102.843 36.1389C102.008 36.6716 101.073 36.9379 100.037 36.9379C99.3032 36.9379 98.6788 36.8166 98.1639 36.574C97.6549 36.3313 97.2376 36.0265 96.9121 35.6595C96.5866 35.2867 96.338 34.9108 96.1664 34.5321H96.051V41.8296H92.269ZM95.9711 29.8978C95.9711 30.7087 96.0835 31.4159 96.3084 32.0196C96.5333 32.6233 96.8588 33.0938 97.285 33.4312C97.7111 33.7626 98.229 33.9284 98.8386 33.9284C99.4541 33.9284 99.975 33.7597 100.401 33.4223C100.827 33.079 101.15 32.6056 101.369 32.0019C101.594 31.3923 101.706 30.6909 101.706 29.8978C101.706 29.1107 101.597 28.4182 101.378 27.8204C101.159 27.2226 100.836 26.7551 100.41 26.4177C99.9838 26.0803 99.46 25.9117 98.8386 25.9117C98.2231 25.9117 97.7022 26.0744 97.2761 26.4C96.8559 26.7255 96.5333 27.1871 96.3084 27.7849C96.0835 28.3827 95.9711 29.087 95.9711 29.8978ZM115.343 23.0796V25.9205H107.131V23.0796H115.343ZM108.995 19.8126H112.777V32.5257C112.777 32.8749 112.83 33.1471 112.937 33.3424C113.043 33.5318 113.191 33.665 113.381 33.7419C113.576 33.8189 113.801 33.8573 114.055 33.8573C114.233 33.8573 114.41 33.8425 114.588 33.8129C114.765 33.7774 114.902 33.7508 114.996 33.733L115.591 36.5473C115.402 36.6065 115.135 36.6746 114.792 36.7515C114.449 36.8344 114.032 36.8847 113.54 36.9024C112.629 36.9379 111.83 36.8166 111.143 36.5384C110.463 36.2603 109.933 35.8282 109.554 35.2423C109.175 34.6563 108.989 33.9165 108.995 33.0228V19.8126ZM123.821 36.9823C122.442 36.9823 121.249 36.6894 120.243 36.1034C119.243 35.5116 118.47 34.6889 117.926 33.6354C117.381 32.576 117.109 31.3479 117.109 29.9511C117.109 28.5425 117.381 27.3114 117.926 26.2579C118.47 25.1985 119.243 24.3758 120.243 23.7899C121.249 23.198 122.442 22.9021 123.821 22.9021C125.2 22.9021 126.39 23.198 127.39 23.7899C128.396 24.3758 129.171 25.1985 129.716 26.2579C130.26 27.3114 130.532 28.5425 130.532 29.9511C130.532 31.3479 130.26 32.576 129.716 33.6354C129.171 34.6889 128.396 35.5116 127.39 36.1034C126.39 36.6894 125.2 36.9823 123.821 36.9823ZM123.839 34.0527C124.466 34.0527 124.99 33.8751 125.41 33.52C125.83 33.1589 126.147 32.6677 126.36 32.0463C126.579 31.4248 126.688 30.7175 126.688 29.9245C126.688 29.1314 126.579 28.4241 126.36 27.8027C126.147 27.1812 125.83 26.69 125.41 26.3289C124.99 25.9679 124.466 25.7874 123.839 25.7874C123.205 25.7874 122.673 25.9679 122.241 26.3289C121.814 26.69 121.492 27.1812 121.273 27.8027C121.06 28.4241 120.953 29.1314 120.953 29.9245C120.953 30.7175 121.06 31.4248 121.273 32.0463C121.492 32.6677 121.814 33.1589 122.241 33.52C122.673 33.8751 123.205 34.0527 123.839 34.0527ZM144.338 26.9681L140.875 27.1812C140.816 26.8853 140.689 26.6189 140.493 26.3822C140.298 26.1395 140.041 25.9472 139.721 25.8051C139.407 25.6572 139.032 25.5832 138.594 25.5832C138.008 25.5832 137.513 25.7075 137.111 25.9561C136.709 26.1987 136.507 26.5242 136.507 26.9326C136.507 27.2581 136.637 27.5334 136.898 27.7583C137.158 27.9832 137.605 28.1637 138.238 28.2998L140.706 28.797C142.032 29.0692 143.021 29.5072 143.672 30.1109C144.323 30.7146 144.648 31.5077 144.648 32.4902C144.648 33.3839 144.385 34.1681 143.858 34.8428C143.337 35.5175 142.621 36.0442 141.71 36.423C140.804 36.7959 139.76 36.9823 138.576 36.9823C136.771 36.9823 135.332 36.6065 134.261 35.8549C133.196 35.0973 132.571 34.0674 132.388 32.7654L136.108 32.5701C136.22 33.1205 136.492 33.5407 136.925 33.8307C137.357 34.1148 137.91 34.2568 138.585 34.2568C139.248 34.2568 139.78 34.1296 140.183 33.8751C140.591 33.6147 140.798 33.2803 140.804 32.8719C140.798 32.5286 140.653 32.2475 140.369 32.0285C140.085 31.8036 139.647 31.632 139.055 31.5136L136.694 31.0431C135.362 30.7767 134.371 30.3151 133.72 29.6581C133.075 29.0012 132.752 28.1637 132.752 27.1457C132.752 26.2697 132.989 25.5151 133.462 24.8818C133.942 24.2486 134.613 23.7603 135.477 23.417C136.347 23.0737 137.365 22.9021 138.531 22.9021C140.254 22.9021 141.609 23.2661 142.597 23.9941C143.592 24.722 144.172 25.7134 144.338 26.9681ZM149.72 36.716L146.009 23.0796H149.835L151.948 32.2416H152.072L154.274 23.0796H158.029L160.267 32.1883H160.382L162.459 23.0796H166.277L162.575 36.716H158.571L156.227 28.14H156.059L153.715 36.716H149.72ZM172.183 36.9735C171.313 36.9735 170.538 36.8225 169.857 36.5207C169.176 36.2129 168.638 35.7602 168.241 35.1624C167.85 34.5587 167.655 33.807 167.655 32.9074C167.655 32.1498 167.794 31.5136 168.072 30.9987C168.351 30.4838 168.729 30.0695 169.209 29.7558C169.688 29.4421 170.233 29.2053 170.842 29.0455C171.458 28.8857 172.103 28.7733 172.778 28.7082C173.571 28.6253 174.21 28.5484 174.695 28.4774C175.181 28.4004 175.533 28.288 175.752 28.14C175.971 27.992 176.08 27.7731 176.08 27.483V27.4298C176.08 26.8675 175.903 26.4325 175.548 26.1247C175.198 25.817 174.701 25.6631 174.056 25.6631C173.375 25.6631 172.834 25.814 172.431 26.1159C172.029 26.4118 171.763 26.7847 171.632 27.2345L168.135 26.9504C168.312 26.1218 168.661 25.4056 169.182 24.8019C169.703 24.1923 170.375 23.7248 171.197 23.3992C172.026 23.0678 172.985 22.9021 174.074 22.9021C174.831 22.9021 175.556 22.9909 176.249 23.1684C176.947 23.346 177.566 23.6212 178.104 23.9941C178.649 24.3669 179.078 24.8463 179.392 25.4323C179.705 26.0123 179.862 26.7077 179.862 27.5186V36.716H176.276V34.825H176.169C175.95 35.2512 175.657 35.627 175.29 35.9525C174.923 36.2721 174.482 36.5237 173.967 36.7071C173.452 36.8847 172.858 36.9735 172.183 36.9735ZM173.266 34.3634C173.822 34.3634 174.314 34.2539 174.74 34.0349C175.166 33.81 175.5 33.5081 175.743 33.1294C175.986 32.7506 176.107 32.3215 176.107 31.8421V30.395C175.989 30.4719 175.826 30.5429 175.619 30.608C175.417 30.6672 175.19 30.7235 174.935 30.7767C174.681 30.8241 174.426 30.8685 174.172 30.9099C173.917 30.9454 173.686 30.978 173.479 31.0076C173.035 31.0727 172.647 31.1762 172.316 31.3183C171.985 31.4603 171.727 31.6527 171.544 31.8953C171.36 32.1321 171.268 32.428 171.268 32.7831C171.268 33.298 171.455 33.6916 171.828 33.9639C172.207 34.2302 172.686 34.3634 173.266 34.3634ZM182.796 41.8296V23.0796H186.525V25.3701H186.694C186.859 25.0032 187.099 24.6303 187.413 24.2515C187.732 23.8668 188.147 23.5472 188.656 23.2927C189.171 23.0323 189.81 22.9021 190.573 22.9021C191.568 22.9021 192.485 23.1625 193.325 23.6833C194.166 24.1982 194.838 24.9765 195.341 26.0182C195.844 27.054 196.095 28.3531 196.095 29.9156C196.095 31.4366 195.85 32.721 195.358 33.7686C194.873 34.8102 194.21 35.6004 193.37 36.1389C192.535 36.6716 191.6 36.9379 190.564 36.9379C189.831 36.9379 189.206 36.8166 188.691 36.574C188.182 36.3313 187.765 36.0265 187.439 35.6595C187.114 35.2867 186.865 34.9108 186.694 34.5321H186.578V41.8296H182.796ZM186.498 29.8978C186.498 30.7087 186.611 31.4159 186.836 32.0196C187.061 32.6233 187.386 33.0938 187.812 33.4312C188.238 33.7626 188.756 33.9284 189.366 33.9284C189.981 33.9284 190.502 33.7597 190.928 33.4223C191.355 33.079 191.677 32.6056 191.896 32.0019C192.121 31.3923 192.233 30.6909 192.233 29.8978C192.233 29.1107 192.124 28.4182 191.905 27.8204C191.686 27.2226 191.363 26.7551 190.937 26.4177C190.511 26.0803 189.987 25.9117 189.366 25.9117C188.75 25.9117 188.23 26.0744 187.803 26.4C187.383 26.7255 187.061 27.1871 186.836 27.7849C186.611 28.3827 186.498 29.087 186.498 29.8978Z" fill="white"/>
<defs>
<linearGradient id="paint0_linear_7_70" x1="14.852" y1="0" x2="14.852" y2="55.432" gradientUnits="userSpaceOnUse">
<stop stop-color="#AB50FA"/>
<stop offset="1" stop-color="#00C4E3"/>
</linearGradient>
<linearGradient id="paint1_linear_7_70" x1="14.852" y1="0" x2="14.852" y2="55.432" gradientUnits="userSpaceOnUse">
<stop stop-color="#AB50FA"/>
<stop offset="1" stop-color="#00C4E3"/>
</linearGradient>
<linearGradient id="paint2_linear_7_70" x1="14.852" y1="0" x2="14.852" y2="55.432" gradientUnits="userSpaceOnUse">
<stop stop-color="#AB50FA"/>
<stop offset="1" stop-color="#00C4E3"/>
</linearGradient>
<linearGradient id="paint3_linear_7_70" x1="14.852" y1="0" x2="14.852" y2="55.432" gradientUnits="userSpaceOnUse">
<stop stop-color="#AB50FA"/>
<stop offset="1" stop-color="#00C4E3"/>
</linearGradient>
<linearGradient id="paint4_linear_7_70" x1="14.852" y1="0" x2="14.852" y2="55.432" gradientUnits="userSpaceOnUse">
<stop stop-color="#AB50FA"/>
<stop offset="1" stop-color="#00C4E3"/>
</linearGradient>
<linearGradient id="paint5_linear_7_70" x1="14.852" y1="0" x2="14.852" y2="55.432" gradientUnits="userSpaceOnUse">
<stop stop-color="#AB50FA"/>
<stop offset="1" stop-color="#00C4E3"/>
</linearGradient>
<linearGradient id="paint6_linear_7_70" x1="14.852" y1="0" x2="14.852" y2="55.432" gradientUnits="userSpaceOnUse">
<stop stop-color="#AB50FA"/>
<stop offset="1" stop-color="#00C4E3"/>
</linearGradient>
</defs>
</svg>
